<svg width="128" height="128" viewBox="0 0 128 128" fill="none" xmlns="http://www.w3.org/2000/svg">
<path d="M64 122C96.0325 122 122 96.0325 122 64C122 31.9675 96.0325 6 64 6C31.9675 6 6 31.9675 6 64C6 96.0325 31.9675 122 64 122Z" fill="white" stroke="#F6ADCD" stroke-width="4" stroke-miterlimit="10"/>
<path d="M112 18.8849L111.253 23.5962L107.836 25.4374L107.623 25.5457L104.793 27.062L104.687 27.1162L101.217 28.9574H101.163L98.3342 30.4737L98.1207 30.582C102.551 37.0262 103.352 44.4994 98.3342 52.2433L98.7613 52.5141C98.3876 53.0014 98.1207 53.3805 97.9605 53.5971C98.0139 53.5971 98.0139 53.5971 98.0139 53.5971L99.6688 54.6802L99.4018 55.4925L99.9357 55.8716L98.1741 60.5287C98.1207 60.5287 98.0673 60.5287 98.0673 60.5287L98.0139 60.6912C97.1598 60.6371 94.5975 59.2291 94.0636 58.9583L85.0421 68.4893L83.5474 69.4099L75.9672 78.995L72.0169 83.8688L71.2695 84.8436L68.9741 87.6595C68.9741 87.6595 69.0275 87.6595 69.0275 87.7137L68.2801 88.6885L68.2268 88.6343L54.4542 105.584C53.0663 106.234 52.5325 106.992 52.5325 106.992C52.5325 106.992 52.4791 107.046 52.3723 107.101L51.1979 108.942C51.2513 108.888 46.3401 113.057 34.7563 105.205C34.6495 105.097 34.4893 105.043 34.3826 104.934C34.2758 104.88 34.1157 104.772 33.9555 104.664C22.2649 96.9739 24.1332 90.8004 24.0799 90.8546L25.361 88.8509C25.361 88.8509 25.8415 88.0928 25.8948 86.5223L46.8206 44.8243L47.0341 43.0914L52.052 30.9069C52.052 30.9069 49.2762 28.7408 48.8491 27.8743L52.3189 24.4085H52.3723L52.5325 24.246L53.0663 24.5709L53.5467 24.1377L53.7069 23.9753L55.2549 25.0042L55.682 23.7586C63.4224 11.7908 76.4476 13.2529 88.245 21.1593C91.181 23.1088 93.69 25.2208 95.8252 27.5494L96.2523 27.3328L98.9748 25.8706L99.1883 25.7623L102.018 24.246H102.071L105.487 22.4048L105.594 22.3507L108.423 20.8344L108.637 20.7261L112 18.8849Z" fill="white"/>
<path d="M77.1948 37.5884L76.7194 40.388H76.6665L74.131 39.2259L77.0891 37.6412L77.1948 37.5884Z" fill="white"/>
<path d="M83.2695 34.3661L82.5299 38.9617L82.2658 39.1202L79.4662 40.5992L80.1529 36.0036L83.0054 34.5246L83.2695 34.3661Z" fill="white"/>
<path d="M89.08 31.3024L88.3933 35.8981L88.1292 36.0037L85.3296 37.4828L85.2767 37.5356L86.0163 32.8871H86.0691L88.8159 31.4081L89.08 31.3024Z" fill="white"/>
<path d="M95.366 27.9745L94.6265 32.5702L94.1511 32.8343L91.5627 34.2077L92.2494 29.6121L94.8378 28.2387L95.366 27.9745Z" fill="white"/>
<path d="M101.124 24.9108L100.384 29.5064L100.331 29.5592L97.5318 31.0383L97.3205 31.1439L98.06 26.5483L98.2713 26.4426L101.071 24.9636L101.124 24.9108Z" fill="white"/>
<path d="M107.621 21.4772L106.881 26.0729L106.67 26.1785L103.871 27.6576L103.818 27.7104L104.504 23.1148L104.61 23.0619L107.41 21.5829L107.621 21.4772Z" fill="white"/>
<path d="M114.065 18.0966L113.537 21.4244L113.326 22.6394L112.428 23.1148L110.262 24.2769L111.002 19.6813L113.167 18.5191L113.749 18.2022C113.854 18.1494 113.96 18.0966 114.065 18.0966Z" fill="white"/>
<path d="M80.1529 36.0038L79.4133 40.5994L78.4097 41.1805L76.7194 40.3881H76.6665L77.0891 37.6413L77.1948 37.5885L80.1529 36.0038Z" fill="#ED1C24"/>
<path d="M86.0691 32.8871L85.3296 37.4827L85.2767 37.5355L82.5299 38.9618L82.2658 39.1202L83.0053 34.5246L83.2695 34.3661L86.0163 32.8871H86.0691Z" fill="#ED1C24"/>
<path d="M92.2494 29.612L91.5099 34.2076L88.3933 35.898L88.1292 36.0036L88.8159 31.408L89.08 31.3023L92.2494 29.612Z" fill="#ED1C24"/>
<path d="M98.2713 26.4426L97.5318 31.0382L97.3205 31.1438L94.6265 32.5701L94.1511 32.8342L94.8378 28.2386L95.366 27.9744L98.06 26.5482L98.2713 26.4426Z" fill="#ED1C24"/>
<path d="M104.61 23.0619L103.871 27.6575L103.818 27.7103L100.384 29.5063L100.331 29.5592L101.071 24.9635L101.124 24.9107L104.504 23.1147L104.61 23.0619Z" fill="#ED1C24"/>
<path d="M110.949 19.6812L110.262 24.2768L106.881 26.0728L106.67 26.1784L107.41 21.5828L107.621 21.4771L110.949 19.6812Z" fill="#ED1C24"/>
<path d="M116.284 19.7341L116.073 21.0019V21.1075C115.914 21.266 115.756 21.4244 115.492 21.5301L113.379 22.6394L112.481 23.1148L112.903 20.5793L113.22 18.6776L113.273 18.5192L113.854 18.2022C113.907 18.2022 113.907 18.2022 113.96 18.1494C114.013 18.1494 114.065 18.0966 114.065 18.0966C114.118 18.0966 114.171 18.0438 114.171 18.0438C114.33 17.9909 114.488 17.9381 114.647 17.9381C115.069 18.0438 115.545 18.3607 115.914 18.8361C116.02 19.153 116.178 19.47 116.284 19.7341Z" fill="#ED1C24"/>
<path d="M116.178 21.0018C115.703 21.3188 114.858 20.949 114.277 20.1567C114.118 19.9454 114.013 19.7869 113.96 19.5756C113.696 18.9945 113.696 18.4663 113.96 18.1494C113.96 18.0966 114.013 18.0966 114.065 18.0437C114.224 17.9381 114.488 17.8853 114.699 17.9381C115.122 18.0437 115.597 18.3607 115.967 18.8361C116.178 19.1002 116.337 19.3643 116.39 19.6813C116.548 20.3151 116.495 20.7905 116.178 21.0018Z" fill="black"/>
<path opacity="0.19" d="M52.4206 25.439C52.4206 25.439 56.2767 31.6721 73.8669 42.9235C91.4571 54.1748 98.4297 55.6011 98.4297 55.6011" stroke="black" stroke-miterlimit="10"/>
<path opacity="0.19" d="M94.3095 54.6504C94.2039 59.0347 93.2531 58.7706 93.2531 58.7706" stroke="black" stroke-miterlimit="10"/>
<path opacity="0.19" d="M51.5755 31.4608C54.2695 28.8196 55.3788 28.8196 55.3788 28.8196" stroke="black" stroke-miterlimit="10"/>
<path opacity="0.19" d="M58.8123 31.989C58.8123 31.989 56.7522 33.6265 55.3788 35.1584" stroke="black" stroke-miterlimit="10"/>
<path opacity="0.19" d="M62.1402 35.2643C62.1402 35.2643 61.1365 35.7397 58.9179 38.2224" stroke="black" stroke-miterlimit="10"/>
<path opacity="0.19" d="M66.1019 37.8525C66.1019 37.8525 64.57 39.1203 62.8796 41.3917" stroke="black" stroke-miterlimit="10"/>
<path opacity="0.19" d="M70.0637 40.4408C70.0637 40.4408 68.3733 42.7122 67.4753 44.4025" stroke="black" stroke-miterlimit="10"/>
<path opacity="0.19" d="M73.8669 42.9235L71.0673 47.1493" stroke="black" stroke-miterlimit="10"/>
<path opacity="0.19" d="M77.8815 45.5646C77.8815 45.5646 77.1948 47.7832 75.2932 49.5263" stroke="black" stroke-miterlimit="10"/>
<path opacity="0.19" d="M82.0017 48.2585C82.0017 48.2585 82.0017 49.4207 79.2549 52.4844" stroke="black" stroke-miterlimit="10"/>
<path opacity="0.19" d="M86.0163 50.1605C86.0163 50.1605 86.1219 51.3755 83.3223 54.2807" stroke="black" stroke-miterlimit="10"/>
<path opacity="0.19" d="M90.1893 52.8544C90.1893 52.8544 90.7176 53.2241 87.8651 56.4464" stroke="black" stroke-miterlimit="10"/>
<path opacity="0.19" d="M82.8997 68.9653L53.8469 104.146C52.4735 104.78 51.9452 105.519 51.9452 105.519C51.9452 105.519 48.142 108.372 36.1511 100.342C24.1602 92.366 25.111 87.9289 25.111 87.9289C25.111 87.9289 25.5864 87.1894 25.6392 85.6575L46.346 44.9835C46.346 45.0363 57.9671 61.4116 82.8997 68.9653Z" fill="#603913" stroke="black" stroke-width="2" stroke-miterlimit="10"/>
<path opacity="0.19" d="M51.9452 105.519L50.6775 107.474C50.7303 107.368 45.8705 111.488 34.4079 103.829C34.2494 103.723 34.1438 103.67 34.0381 103.565C33.9325 103.512 33.774 103.406 33.6155 103.301C22.0472 95.8525 23.896 89.7779 23.8432 89.8307L25.111 87.8762C25.111 87.8762 24.1073 92.2606 36.151 100.29C48.1948 108.424 51.9452 105.519 51.9452 105.519Z" stroke="black" stroke-width="2" stroke-miterlimit="10"/>
<path opacity="0.19" d="M93.2531 58.7705L84.3259 68.0674L82.8997 68.9654C57.9671 61.4117 46.3988 44.9836 46.3988 44.9836L46.6101 43.2933L51.5755 31.408C51.5755 31.4608 66.0491 47.5191 93.2531 58.7705Z" stroke="black" stroke-width="2" stroke-miterlimit="10"/>
<path opacity="0.19" d="M97.2148 60.5137C96.264 60.4609 93.2531 58.7705 93.2531 58.7705C66.0491 47.5191 51.5755 31.408 51.5755 31.408C51.5755 31.408 48.8287 29.2951 48.4061 28.4499L51.8396 25.0164L52.3678 25.3862L53.0017 24.8051L54.6393 25.8616C54.6393 25.8616 58.4425 31.408 74.7121 41.4445C90.9817 51.4809 97.0036 53.6466 97.0036 53.6466L98.6411 54.7031L98.377 55.4955L98.9052 55.8652L97.2148 60.5137Z" stroke="black" stroke-width="2" stroke-miterlimit="10"/>
<path opacity="0.32" d="M97.9544 52.5373C97.4261 53.2769 97.0564 53.6994 97.0564 53.6994C97.0564 53.6994 91.0345 51.5337 74.7649 41.4973C58.4954 31.4608 54.6921 25.9672 54.6921 25.9672C54.6921 25.9672 54.9562 25.439 55.4316 24.6994L55.2203 24.541C62.8797 12.867 75.7686 14.2933 87.4425 22.0055C99.1165 29.6648 105.191 40.6521 97.5318 52.326L97.9544 52.5373Z" fill="url(#paint0_linear_39_121)" stroke="black" stroke-width="2" stroke-miterlimit="10"/>
<path opacity="0.68" d="M82.9526 69.0183L53.8997 104.199C52.5263 104.832 51.9981 105.572 51.9981 105.572C51.9981 105.572 48.1948 108.424 36.2039 100.395C24.1602 92.3662 25.1639 87.9819 25.1639 87.9819C25.1639 87.9819 25.6393 87.2423 25.6921 85.7104L46.3988 45.0365C46.4517 45.0365 58.02 61.4646 82.9526 69.0183Z" fill="#603913"/>
<path opacity="0.62" d="M51.9452 105.519L50.6775 107.474C50.7303 107.368 45.8705 111.488 34.4079 103.829C34.2494 103.723 34.1438 103.67 34.0381 103.565C33.9325 103.512 33.774 103.406 33.6155 103.301C22.0472 95.8525 23.896 89.7779 23.8432 89.8307L25.111 87.8762C25.111 87.8762 24.1073 92.2606 36.151 100.29C48.1948 108.424 51.9452 105.519 51.9452 105.519Z" fill="#603913"/>
<path opacity="0.68" d="M93.3588 58.8233L84.4316 68.1202L83.0054 69.0182C58.02 61.4645 46.4517 45.0364 46.4517 45.0364L46.663 43.3461L51.6283 31.4608C51.6812 31.4608 66.1548 47.5719 93.3588 58.8233Z" fill="#603913"/>
<path opacity="0.66" d="M97.4261 60.3552C96.4753 60.3024 93.4644 58.6121 93.4644 58.6121C66.2604 47.3607 51.7868 31.2496 51.7868 31.2496C51.7868 31.2496 49.04 29.1367 48.6174 28.2915L52.0509 24.858L52.5791 25.2277L53.213 24.6467L54.8506 25.7031C54.8506 25.7031 58.6538 31.2496 74.9234 41.286C91.193 51.3224 97.2149 53.4882 97.2149 53.4882L98.8524 54.5447L98.5883 55.337L99.1165 55.7068L97.4261 60.3552Z" fill="#603913"/>
<path opacity="0.19" d="M97.2148 60.5137C96.264 60.4609 93.2531 58.7705 93.2531 58.7705C66.0491 47.5191 51.5755 31.408 51.5755 31.408C51.5755 31.408 48.8287 29.2951 48.4061 28.4499L51.8396 25.0164L52.3678 25.3862L53.0017 24.8051L54.6393 25.8616C54.6393 25.8616 58.4425 31.408 74.7121 41.4445C90.9817 51.4809 97.0036 53.6466 97.0036 53.6466L98.6411 54.7031L98.377 55.4955L98.9052 55.8652L97.2148 60.5137Z" stroke="black" stroke-width="2" stroke-miterlimit="10"/>
<path opacity="0.68" d="M97.0564 53.7523C97.0564 53.7523 91.0345 51.5866 74.7649 41.5501C58.4954 31.5137 54.6921 25.9672 54.6921 25.9672L55.2203 24.541C55.2203 24.541 62.5099 26.7068 77.8287 36.5847C95.3132 47.8889 97.5846 52.2733 97.5846 52.2733L97.0564 53.7523Z" fill="#603913"/>
<path d="M64.4643 91.257C48.8286 91.8381 34.1437 83.7033 34.1437 83.7033L42.0144 70.339C53.4771 78.2097 75.2931 78.3153 75.2931 78.3153L64.4643 91.257Z" fill="#ED1C24"/>
<path d="M40.9051 76.255L38.2112 81.5373L39.2676 82.0656L41.9616 76.7832L40.9051 76.255Z" fill="black"/>
<path d="M45.6065 78.2624C44.8669 77.9454 44.0746 77.9983 43.3351 78.3152C42.5955 78.6321 42.0673 79.2132 41.7504 80.0055C41.4334 80.7979 41.4862 81.5374 41.8032 82.2769C42.1201 83.0165 42.7012 83.5447 43.4935 83.8616C44.3387 84.1786 45.1839 84.0729 45.7649 83.8088L45.2895 82.6995C44.8141 82.9108 44.3915 82.9108 43.9161 82.7524C43.4407 82.5939 43.1238 82.2769 42.9125 81.8015C42.7012 81.3261 42.7012 80.9035 42.8596 80.4281C43.0181 79.9527 43.3351 79.6358 43.8105 79.4245C44.233 79.2132 44.7085 79.2132 45.1839 79.3717C45.6593 79.5301 45.9762 79.8471 46.1875 80.3225L47.2968 79.8471C46.9799 79.266 46.4516 78.6321 45.6065 78.2624Z" fill="black"/>
<path d="M51.6283 81.3788L51.9452 80.2167L48.5117 79.2659L46.9798 85.0236L50.4133 85.9744L50.7303 84.8123L48.4589 84.1784L48.7758 83.0163L50.519 83.4917L50.8359 82.3296L49.0928 81.8542L49.4097 80.6921L51.6283 81.3788Z" fill="black"/>
<path d="M56.4353 82.0128C56.0127 81.4317 55.3788 80.9035 54.4808 80.745L52.9489 80.4281L51.8396 86.2387L53.3715 86.5556C54.2167 86.7141 54.9562 86.5556 55.6429 86.0802C56.2768 85.6576 56.6466 85.0237 56.805 84.1786C56.9635 83.3862 56.8578 82.6467 56.4353 82.0128ZM55.6429 83.9673C55.4316 85.0237 54.6393 85.6048 53.5828 85.3935L53.213 85.3407L53.8997 81.8543L54.2695 81.9072C55.2731 82.1184 55.8542 82.9636 55.6429 83.9673Z" fill="black"/>
<path d="M63.5135 86.7668C63.0381 86.714 62.6155 86.5027 62.2986 86.1329C61.9817 85.7632 61.8232 85.3406 61.876 84.8124C61.9288 84.3369 62.1401 83.9144 62.5099 83.5974C62.8796 83.2805 63.3022 83.122 63.8305 83.1748C64.3059 83.2277 64.7285 83.439 65.0454 83.8087L65.9434 83.0164C65.5208 82.4881 64.7813 82.0655 63.8833 81.9599C63.0909 81.9071 62.3514 82.1184 61.7175 82.6466C61.0837 83.1748 60.7139 83.8615 60.6611 84.7067C60.6082 85.5519 60.8195 86.2386 61.3478 86.9253C61.876 87.5592 62.5627 87.8761 63.4079 87.9818C64.3059 88.0346 65.0982 87.7176 65.5736 87.295L64.7813 86.3971C64.4643 86.6612 63.9889 86.8196 63.5135 86.7668Z" fill="black"/>
<path d="M69.377 82.224C68.5318 82.224 67.8451 82.4881 67.2112 83.0692C66.6301 83.6502 66.3132 84.3369 66.2604 85.1821C66.2604 86.0273 66.5245 86.714 67.1055 87.3479C67.264 87.5063 67.4225 87.6648 67.581 87.7704L68.3205 86.8196C68.2148 86.714 68.0564 86.6612 67.9507 86.5027C67.581 86.1329 67.4225 85.7103 67.4753 85.2349C67.4753 84.7595 67.6866 84.3369 68.0564 83.9672C68.4261 83.6502 68.8487 83.4389 69.3241 83.4389C69.7995 83.4389 70.2221 83.6502 70.5919 84.02L71.3314 83.0692C70.8032 82.5409 70.1693 82.2768 69.377 82.224Z" fill="black"/>
<defs>
<linearGradient id="paint0_linear_39_121" x1="67.9804" y1="14.5596" x2="92.2173" y2="56.5392" gradientUnits="userSpaceOnUse">
<stop offset="0.1213" stop-color="#E0E1E2"/>
<stop offset="0.1869" stop-color="#B4B6B8"/>
<stop offset="0.2569" stop-color="#8C8E91"/>
<stop offset="0.3182" stop-color="#717375"/>
<stop offset="0.3677" stop-color="#5F6062"/>
<stop offset="0.3993" stop-color="#58595B"/>
<stop offset="0.7348"/>
</linearGradient>
</defs>
</svg>
